<?xml version="1.0" encoding="UTF-8"?>
<svg xmlns="http://www.w3.org/2000/svg" width="548" height="432" viewBox="0 0 548 432" fill="none">
  <g clip-path="url(#clip0_5630_313768)">
    <path opacity="0.08" fill-rule="evenodd" clip-rule="evenodd" d="M546.47 288.07L519.92 171.6C518.53 165.49 514.44 160.36 508.8 157.64L401.32 105.82C398.22 104.32 394.79 103.63 391.36 103.81C388.63 103.95 385.95 104.63 383.48 105.82L276.01 157.67C270.37 160.39 266.28 165.53 264.89 171.63L238.37 288.1C237.13 293.52 238.14 299.22 241.16 303.88C241.52 304.45 241.91 304.99 242.33 305.52L316.72 398.91C320.62 403.8 326.53 406.65 332.79 406.65L452.08 406.62C458.33 406.62 464.24 403.78 468.15 398.89L542.51 305.49C546.41 300.59 547.88 294.18 546.48 288.07H546.47Z" fill="url(#paint0_linear_5630_313768)" stroke="#00B6A2" stroke-width="0.99" stroke-miterlimit="10"></path>
    <path opacity="0.08" fill-rule="evenodd" clip-rule="evenodd" d="M463.12 106.35L452.57 60.08C452.02 57.66 450.39 55.61 448.15 54.53L405.45 33.94C404.22 33.34 402.86 33.07 401.49 33.14C400.4 33.19 399.34 33.47 398.36 33.94L355.66 54.54C353.42 55.62 351.8 57.66 351.24 60.09L340.71 106.36C340.22 108.52 340.62 110.78 341.82 112.63C341.96 112.85 342.12 113.07 342.28 113.28L371.84 150.39C373.39 152.34 375.74 153.46 378.22 153.46H425.61C428.09 153.46 430.44 152.32 431.99 150.38L461.54 113.27C463.09 111.32 463.67 108.78 463.12 106.35Z" fill="url(#paint1_linear_5630_313768)" stroke="#00B6A2" stroke-width="0.99" stroke-miterlimit="10"></path>
    <path opacity="0.08" fill-rule="evenodd" clip-rule="evenodd" d="M439.47 262.71L401.71 97.13C399.73 88.45 393.91 81.14 385.9 77.28L233.1 3.6C228.69 1.47 223.82 0.489999 218.93 0.739999C215.05 0.939999 211.24 1.91 207.73 3.6L54.94 77.32C46.93 81.18 41.11 88.49 39.13 97.17L1.43997 262.75C-0.320029 270.46 1.10997 278.55 5.40997 285.18C5.92997 285.98 6.47997 286.76 7.06997 287.51L112.82 420.28C118.37 427.24 126.78 431.29 135.67 431.29L305.26 431.25C314.15 431.25 322.55 427.21 328.1 420.26L433.82 287.47C439.37 280.51 441.45 271.39 439.47 262.71Z" fill="url(#paint2_linear_5630_313768)" stroke="#00B6A2" stroke-width="1.41" stroke-miterlimit="10"></path>
    <path opacity="0.08" fill-rule="evenodd" clip-rule="evenodd" d="M190.05 267.51L184.86 244.74C184.59 243.55 183.79 242.54 182.68 242.01L161.67 231.88C161.06 231.59 160.39 231.45 159.72 231.49C159.18 231.51 158.66 231.65 158.18 231.88L137.17 242.02C136.07 242.55 135.27 243.56 135 244.75L129.81 267.52C129.57 268.58 129.77 269.69 130.36 270.6C130.43 270.71 130.51 270.82 130.59 270.92L145.13 289.18C145.89 290.14 147.05 290.7 148.27 290.7H171.59C172.81 290.7 173.97 290.14 174.73 289.18L189.27 270.92C190.03 269.96 190.32 268.71 190.04 267.51H190.05Z" fill="url(#paint3_linear_5630_313768)" stroke="white" stroke-width="0.99" stroke-miterlimit="10"></path>
    <path opacity="0.76" fill-rule="evenodd" clip-rule="evenodd" d="M187.72 160.69C187.92 161.58 188.68 162.19 189.53 162.2C189.65 162.2 189.78 162.2 189.9 162.16L189.92 162.19L200.96 160.26C199.26 155.42 196.07 151.47 192.07 148.83L187.79 159.45L187.82 159.49C187.67 159.85 187.62 160.26 187.71 160.68L187.72 160.69ZM192.31 170.22C191.96 170.32 191.63 170.53 191.39 170.84C190.79 171.6 190.9 172.7 191.61 173.33V173.37L199.54 180.57C201.9 176.68 203.01 172.01 202.5 167.21L192.32 170.19V170.22H192.31ZM187.67 177.6C187.39 177.37 187.04 177.23 186.67 177.23C185.76 177.23 185.01 178.05 184.97 179.08L184.93 179.1L184.36 190.59C185.04 190.49 185.73 190.37 186.42 190.19C190.18 189.22 193.44 187.12 195.99 184.27L187.7 177.59H187.69L187.67 177.6ZM181.03 165.54L178.37 166.87L177.71 169.85L179.55 172.23H182.51L184.35 169.85L183.69 166.88L181.02 165.55L181.03 165.54ZM177.13 179.08C177.12 178.68 176.99 178.29 176.76 177.96C176.19 177.15 175.15 177 174.41 177.6H174.38L166.09 184.24C169.22 187.71 173.3 189.97 177.72 190.59L177.14 179.08H177.13ZM131.39 159.58L139.95 197.12C140.4 199.09 141.72 200.74 143.54 201.62L178.18 218.32C179.18 218.8 180.29 219.03 181.39 218.97C182.27 218.93 183.13 218.71 183.93 218.32L218.57 201.61C220.39 200.74 221.7 199.08 222.16 197.11L230.71 159.57C231.11 157.82 230.78 155.99 229.81 154.48C229.69 154.3 229.57 154.12 229.43 153.95L205.46 123.85C204.2 122.27 202.3 121.35 200.28 121.35H161.83C159.81 121.36 157.91 122.27 156.65 123.85L132.68 153.95C131.42 155.53 130.95 157.6 131.4 159.56L131.39 159.58ZM144.57 160.04C144.82 158.92 146.01 158.24 147.25 158.51H147.28C147.28 158.51 147.3 158.51 147.32 158.52C147.49 158.56 147.71 158.6 147.86 158.64C148.57 158.83 149.08 159.12 149.72 159.37C151.09 159.87 152.23 160.28 153.34 160.44C153.9 160.48 154.19 160.21 154.5 160.01C154.65 160.04 155.12 160.12 155.38 160.17C157.37 153.87 161.6 148.41 167.33 144.99C167.23 144.75 167.06 144.24 166.98 144.15C167.11 143.8 167.31 143.46 167.14 142.91C166.74 141.86 166.09 140.82 165.3 139.59C164.92 139.02 164.53 138.58 164.19 137.92C164.11 137.76 164 137.52 163.92 137.36C163.39 136.21 163.78 134.88 164.8 134.38C165.83 133.88 167.11 134.41 167.67 135.57C167.75 135.73 167.86 135.95 167.93 136.11C168.22 136.79 168.33 137.37 168.53 138.03C169 139.42 169.39 140.58 169.95 141.55C170.27 142.02 170.66 142.08 171.01 142.2C171.08 142.31 171.32 142.77 171.45 143C172.6 142.56 173.78 142.2 175.01 141.92C180.39 140.69 185.77 141.18 190.59 143.05L191.06 142.19C191.41 142.1 191.74 142 191.95 141.75C192.7 140.84 193.01 139.38 193.55 137.99C193.76 137.34 193.85 136.75 194.15 136.07C194.21 135.92 194.33 135.7 194.41 135.54C194.96 134.39 196.24 133.86 197.27 134.36C198.29 134.86 198.68 136.18 198.15 137.33C198.07 137.49 197.97 137.74 197.88 137.89C197.54 138.55 197.15 138.99 196.77 139.56C195.99 140.8 195.3 141.91 194.89 142.97C194.79 143.32 194.94 143.8 195.07 144.15L194.69 145.06C200.21 148.36 204.57 153.62 206.64 160.13L207.54 159.97C207.78 160.11 208.27 160.43 208.73 160.4C209.84 160.24 210.97 159.82 212.35 159.33C212.99 159.08 213.5 158.8 214.21 158.61C214.36 158.57 214.57 158.52 214.75 158.49C214.76 158.49 214.77 158.48 214.79 158.48H214.82C216.05 158.21 217.24 158.89 217.5 160.01C217.75 161.13 216.97 162.26 215.75 162.56C215.75 162.56 215.73 162.56 215.72 162.56H215.7C215.53 162.6 215.3 162.66 215.14 162.69C214.42 162.83 213.83 162.79 213.15 162.85C211.7 163 210.5 163.13 209.43 163.47C209.09 163.61 208.77 164.08 208.54 164.38L207.67 164.63C208.64 171.43 206.99 178.11 203.44 183.52L204.11 184.12C204.15 184.38 204.21 184.99 204.53 185.33C205.34 186.11 206.37 186.75 207.61 187.52C208.2 187.87 208.74 188.1 209.33 188.53C209.45 188.62 209.62 188.77 209.76 188.88C209.76 188.88 209.78 188.89 209.79 188.9C210.78 189.7 211.01 191.08 210.3 191.98C209.9 192.49 209.29 192.74 208.65 192.72C208.15 192.71 207.64 192.52 207.2 192.17C207.06 192.06 206.87 191.91 206.74 191.8C206.18 191.32 205.85 190.84 205.37 190.34C204.35 189.29 203.5 188.42 202.57 187.79C202.08 187.5 201.71 187.62 201.34 187.67C201.22 187.58 200.82 187.29 200.59 187.13C197.06 190.91 192.42 193.71 187.04 194.94C185.79 195.23 184.54 195.42 183.29 195.52L183.24 196.4C182.96 196.67 182.65 197.06 182.56 197.48C182.47 198.61 182.62 199.82 182.79 201.28C182.89 201.97 183.05 202.53 183.07 203.27C183.07 203.42 183.07 203.63 183.07 203.81V203.87C183.07 205.16 182.14 206.19 181 206.19C179.86 206.19 178.93 205.15 178.93 203.87C178.93 203.69 178.92 203.44 178.93 203.27C178.96 202.53 179.12 201.96 179.21 201.28C179.38 199.82 179.53 198.61 179.44 197.48C179.36 196.92 179.03 196.69 178.77 196.43C178.77 196.28 178.74 195.78 178.72 195.5C172.13 194.91 166.01 191.87 161.51 187.11L160.72 187.68C160.45 187.67 159.87 187.58 159.46 187.82C158.53 188.45 157.69 189.32 156.66 190.37C156.19 190.87 155.85 191.35 155.29 191.83C155.16 191.94 154.97 192.09 154.83 192.2C153.84 193 152.45 192.91 151.74 192.01C151.02 191.11 151.25 189.73 152.25 188.93C152.39 188.82 152.57 188.66 152.71 188.56C153.3 188.12 153.84 187.89 154.43 187.55C155.67 186.78 156.7 186.13 157.51 185.37C157.9 184.95 157.87 184.56 157.9 184.18C158.01 184.08 158.42 183.71 158.64 183.52C156.85 180.83 155.51 177.78 154.76 174.45C154.01 171.15 153.89 167.85 154.33 164.68L153.49 164.43C153.34 164.22 153.03 163.69 152.6 163.52C151.53 163.18 150.33 163.06 148.89 162.9C148.21 162.84 147.62 162.87 146.9 162.74C146.73 162.7 146.47 162.64 146.3 162.6C145.08 162.3 144.29 161.17 144.55 160.05H144.56L144.57 160.04ZM162.58 180.57L170.46 173.38V173.36C170.73 173.12 170.93 172.79 171.02 172.4C171.23 171.45 170.67 170.5 169.76 170.25V170.21L159.54 167.22C159.32 169.46 159.46 171.78 159.98 174.11C160.51 176.46 161.4 178.64 162.58 180.58V180.57ZM178.48 157.89C178.67 158.22 178.98 158.5 179.37 158.67C179.67 158.81 179.99 158.86 180.29 158.85C180.98 158.82 181.62 158.47 181.96 157.88L187.66 148.31C183.72 147.06 179.36 146.79 174.99 147.71C174.21 147.87 173.45 148.07 172.71 148.3L178.42 157.89H178.46H178.48ZM172.18 162.16C172.32 162.19 172.47 162.2 172.61 162.2C172.85 162.19 173.1 162.13 173.33 162.01C174.24 161.56 174.63 160.45 174.24 159.52V159.5L169.96 148.85C165.82 151.56 162.72 155.6 161.11 160.28L172.17 162.2L172.19 162.18L172.18 162.16Z" fill="#08B09C"></path>
    <path opacity="0.64" fill-rule="evenodd" clip-rule="evenodd" d="M280.88 290.41C281.03 291.08 281.6 291.53 282.23 291.54C282.32 291.54 282.41 291.54 282.51 291.52V291.54L290.78 290.1C289.51 286.48 287.12 283.53 284.13 281.56L280.93 289.5L280.95 289.53C280.84 289.8 280.8 290.11 280.87 290.42L280.88 290.41ZM284.31 297.54C284.05 297.61 283.8 297.77 283.62 298C283.17 298.57 283.25 299.38 283.79 299.86V299.9L289.72 305.28C291.48 302.37 292.32 298.88 291.93 295.29L284.32 297.52V297.54H284.31ZM280.84 303.05C280.63 302.88 280.37 302.77 280.09 302.77C279.4 302.77 278.85 303.39 278.82 304.15L278.79 304.17L278.36 312.76C278.87 312.69 279.38 312.59 279.9 312.46C282.71 311.73 285.15 310.16 287.05 308.03L280.85 303.04V303.06L280.84 303.05ZM275.88 294.03L273.89 295.02L273.4 297.25L274.78 299.03H276.99L278.37 297.25L277.88 295.03L275.89 294.04H275.88V294.03ZM272.96 304.15C272.95 303.85 272.86 303.56 272.68 303.31C272.25 302.7 271.48 302.59 270.93 303.04H270.91L264.71 308.01C267.05 310.6 270.1 312.3 273.4 312.75L272.97 304.15H272.96ZM238.77 289.57L245.17 317.63C245.5 319.1 246.49 320.34 247.85 320.99L273.74 333.48C274.48 333.84 275.31 334.01 276.14 333.97C276.8 333.93 277.44 333.77 278.04 333.48L303.93 320.99C305.29 320.34 306.27 319.1 306.61 317.63L313 289.57C313.3 288.26 313.06 286.89 312.33 285.77C312.24 285.64 312.15 285.5 312.05 285.38L294.13 262.88C293.19 261.7 291.77 261.01 290.26 261.01H261.52C260.02 261.01 258.59 261.7 257.65 262.88L239.74 285.38C238.8 286.56 238.45 288.11 238.78 289.58L238.77 289.57ZM248.62 289.91C248.81 289.08 249.7 288.57 250.62 288.77H250.64C250.64 288.77 250.66 288.78 250.67 288.78C250.8 288.81 250.96 288.83 251.07 288.87C251.6 289.01 251.98 289.23 252.46 289.41C253.48 289.78 254.33 290.09 255.16 290.21C255.58 290.25 255.8 290.04 256.03 289.89C256.14 289.91 256.49 289.97 256.69 290.01C258.18 285.3 261.34 281.22 265.63 278.66C265.55 278.48 265.43 278.09 265.37 278.03C265.47 277.77 265.61 277.51 265.49 277.11C265.19 276.32 264.7 275.55 264.11 274.63C263.83 274.2 263.53 273.87 263.28 273.38C263.22 273.26 263.14 273.08 263.08 272.96C262.68 272.1 262.97 271.11 263.74 270.73C264.51 270.35 265.47 270.75 265.88 271.61C265.94 271.73 266.02 271.9 266.07 272.01C266.29 272.52 266.37 272.95 266.52 273.45C266.87 274.49 267.16 275.35 267.58 276.08C267.82 276.43 268.11 276.48 268.37 276.57C268.42 276.65 268.6 277 268.7 277.17C269.55 276.84 270.44 276.57 271.36 276.36C275.38 275.44 279.4 275.81 283 277.2L283.35 276.56C283.61 276.49 283.86 276.42 284.02 276.23C284.59 275.55 284.81 274.46 285.22 273.42C285.37 272.93 285.45 272.49 285.67 271.98C285.72 271.87 285.8 271.7 285.86 271.58C286.27 270.72 287.23 270.32 288 270.7C288.76 271.07 289.06 272.06 288.66 272.92C288.6 273.04 288.52 273.22 288.46 273.34C288.2 273.83 287.91 274.16 287.63 274.59C287.04 275.52 286.53 276.35 286.23 277.14C286.16 277.4 286.27 277.76 286.37 278.03L286.09 278.71C290.22 281.18 293.48 285.11 295.03 289.98L295.71 289.86C295.89 289.96 296.26 290.2 296.6 290.18C297.43 290.06 298.28 289.75 299.3 289.38C299.78 289.2 300.16 288.98 300.69 288.84C300.8 288.81 300.96 288.78 301.09 288.75C301.1 288.75 301.11 288.74 301.12 288.74H301.14C302.06 288.54 302.95 289.05 303.14 289.88C303.33 290.71 302.74 291.56 301.83 291.79C301.83 291.79 301.81 291.79 301.8 291.79H301.79C301.66 291.82 301.5 291.86 301.38 291.89C300.84 291.99 300.4 291.97 299.89 292.01C298.81 292.12 297.91 292.22 297.11 292.47C296.86 292.57 296.61 292.93 296.44 293.15L295.79 293.34C296.52 298.43 295.29 303.42 292.63 307.45L293.13 307.9C293.16 308.09 293.2 308.55 293.44 308.8C294.05 309.38 294.82 309.86 295.74 310.43C296.18 310.69 296.58 310.86 297.03 311.19C297.13 311.26 297.25 311.37 297.35 311.45C297.35 311.45 297.36 311.45 297.37 311.46C298.11 312.06 298.28 313.09 297.75 313.77C297.45 314.15 296.99 314.34 296.51 314.32C296.14 314.31 295.75 314.17 295.43 313.91C295.33 313.82 295.18 313.72 295.09 313.63C294.67 313.27 294.42 312.91 294.07 312.54C293.3 311.75 292.67 311.11 291.98 310.63C291.62 310.42 291.34 310.5 291.06 310.54C290.97 310.47 290.67 310.26 290.5 310.14C287.86 312.97 284.4 315.06 280.37 315.98C279.44 316.19 278.5 316.34 277.57 316.42L277.54 317.08C277.33 317.28 277.1 317.57 277.04 317.89C276.97 318.73 277.08 319.64 277.21 320.73C277.28 321.24 277.4 321.66 277.42 322.22V322.67C277.42 323.63 276.72 324.41 275.87 324.41C275.02 324.41 274.32 323.63 274.32 322.67C274.32 322.54 274.31 322.35 274.32 322.22C274.34 321.67 274.46 321.24 274.53 320.73C274.66 319.64 274.77 318.73 274.7 317.89C274.64 317.47 274.4 317.3 274.19 317.1C274.19 316.99 274.17 316.61 274.16 316.4C269.23 315.96 264.65 313.68 261.3 310.12L260.71 310.55C260.51 310.54 260.07 310.47 259.77 310.65C259.07 311.12 258.44 311.78 257.68 312.56C257.33 312.93 257.07 313.29 256.66 313.65C256.57 313.73 256.42 313.84 256.32 313.93C255.57 314.53 254.54 314.47 254.01 313.79C253.48 313.11 253.65 312.08 254.39 311.48C254.49 311.4 254.63 311.28 254.73 311.2C255.17 310.87 255.58 310.7 256.02 310.44C256.95 309.86 257.71 309.38 258.32 308.81C258.61 308.5 258.59 308.2 258.61 307.93C258.69 307.85 259 307.58 259.16 307.43C257.82 305.42 256.82 303.14 256.26 300.65C255.7 298.18 255.61 295.71 255.94 293.35L255.31 293.17C255.2 293.01 254.97 292.62 254.64 292.49C253.84 292.24 252.95 292.14 251.86 292.03C251.35 291.98 250.91 292.01 250.37 291.91C250.24 291.89 250.05 291.84 249.92 291.8C249.01 291.58 248.42 290.73 248.61 289.89H248.57L248.62 289.91ZM262.08 305.26L267.97 299.89V299.87C268.17 299.69 268.32 299.44 268.39 299.15C268.55 298.44 268.13 297.73 267.45 297.54V297.5L259.81 295.26C259.65 296.94 259.74 298.67 260.14 300.41C260.54 302.17 261.2 303.79 262.08 305.25V305.26ZM273.97 288.3C274.11 288.55 274.34 288.76 274.64 288.89C274.86 288.99 275.1 289.03 275.33 289.02C275.84 289 276.32 288.74 276.58 288.3L280.84 281.15C277.9 280.22 274.64 280.01 271.37 280.7C270.79 280.82 270.22 280.97 269.66 281.14L273.93 288.31H273.96L273.97 288.3ZM269.26 291.49C269.36 291.51 269.47 291.52 269.58 291.51C269.76 291.5 269.94 291.46 270.12 291.37C270.8 291.03 271.09 290.21 270.8 289.51H270.81L267.6 281.53C264.51 283.56 262.19 286.58 260.98 290.07L269.25 291.5H269.26V291.49Z" fill="#08B09C"></path>
    <path fill-rule="evenodd" clip-rule="evenodd" d="M349.15 207.15L338.45 160.2C337.89 157.74 336.24 155.67 333.97 154.57L290.64 133.68C289.39 133.08 288.01 132.8 286.62 132.87C285.52 132.92 284.44 133.2 283.45 133.68L240.13 154.58C237.86 155.68 236.21 157.75 235.65 160.21L224.96 207.16C224.46 209.34 224.87 211.64 226.08 213.52C226.22 213.75 226.38 213.97 226.55 214.18L256.53 251.83C258.1 253.8 260.49 254.95 263.01 254.95H311.09C313.61 254.94 315.99 253.79 317.57 251.83L347.54 214.18C349.11 212.2 349.71 209.62 349.14 207.16L349.15 207.15ZM285.7 184.02H282.86V180.26C282.86 180 282.65 179.79 282.39 179.79C282.13 179.79 281.92 180 281.92 180.26V184.02H279.51L273.61 189.92V191.36H269.8C269.54 191.36 269.33 191.57 269.33 191.83C269.33 192.09 269.54 192.3 269.8 192.3H273.61V195.15H269.8C269.54 195.15 269.33 195.36 269.33 195.62C269.33 195.88 269.54 196.09 269.8 196.09H273.61V198.94H269.8C269.54 198.94 269.33 199.15 269.33 199.41C269.33 199.67 269.54 199.88 269.8 199.88H273.61V202.73H269.8C269.54 202.73 269.33 202.94 269.33 203.2C269.33 203.46 269.54 203.67 269.8 203.67H273.61V205.01L279.51 210.91H281.92V214.67C281.92 214.93 282.13 215.14 282.39 215.14C282.65 215.14 282.86 214.93 282.86 214.67V210.91H285.7V230.68C285.7 234.72 282.43 237.99 278.39 237.99H273.24C269.29 237.99 266.08 234.85 265.94 230.93V218.38L268.17 216.15C268.93 216.58 269.9 216.48 270.55 215.84C271.43 214.96 271.31 213.45 270.18 212.75C269.56 212.36 268.75 212.37 268.13 212.75C267.16 213.35 266.94 214.54 267.45 215.42L264.92 217.95V226.12C262.88 226.6 260.64 226.04 259.05 224.45L257.49 222.89C255.2 220.6 255.05 216.98 257.03 214.52H254.89C251.62 214.52 248.96 211.87 248.96 208.59V203.23C248.96 200.93 250.27 198.94 252.18 197.96H260.43C260.66 198.8 261.42 199.42 262.33 199.42C263.58 199.42 264.55 198.27 264.25 196.97C264.09 196.26 263.51 195.69 262.8 195.52C261.69 195.26 260.69 195.94 260.42 196.93H252.17C250.26 195.95 248.95 193.96 248.95 191.66V186.3C248.95 183.03 251.6 180.37 254.88 180.37H257.13C255.03 177.9 255.14 174.2 257.47 171.86L259.03 170.3C260.62 168.71 262.86 168.15 264.9 168.63V176.93L267.43 179.46C267 180.22 267.1 181.19 267.74 181.84C268.62 182.72 270.13 182.6 270.83 181.47C271.22 180.85 271.21 180.04 270.83 179.42C270.23 178.45 269.04 178.23 268.16 178.74L265.93 176.51V163.96C266.06 160.04 269.27 156.9 273.23 156.9H278.38C282.42 156.9 285.69 160.17 285.69 164.21V183.98L285.7 184.02ZM325.15 191.69C325.15 193.99 323.84 195.98 321.93 196.96H313.08C312.81 195.98 311.82 195.29 310.7 195.55C309.99 195.72 309.42 196.29 309.25 197C308.95 198.3 309.93 199.45 311.17 199.45C312.08 199.45 312.84 198.83 313.07 197.99H321.92C323.83 198.97 325.14 200.96 325.14 203.26V208.62C325.14 211.89 322.49 214.55 319.21 214.55H316.96C319.06 217.02 318.95 220.72 316.62 223.06L315.06 224.62C313.47 226.21 311.25 226.76 309.21 226.29V217.99L306.68 215.46C307.11 214.7 307.01 213.73 306.37 213.08C305.49 212.2 303.98 212.32 303.28 213.45C302.89 214.07 302.89 214.88 303.28 215.5C303.88 216.47 305.07 216.69 305.95 216.18L308.18 218.41V225.96V230.71C308.18 234.75 304.91 238.02 300.87 238.02H295.72C291.68 238.02 288.41 234.75 288.41 230.71V210.94H291.25V214.7C291.25 214.96 291.46 215.17 291.72 215.17C291.98 215.17 292.19 214.96 292.19 214.7V210.94H294.6L300.5 205.04V203.7H304.21C304.47 203.7 304.68 203.49 304.68 203.23C304.68 202.97 304.47 202.76 304.21 202.76H300.5V199.91H304.21C304.47 199.91 304.68 199.7 304.68 199.44C304.68 199.18 304.47 198.97 304.21 198.97H300.5V196.12H304.21C304.47 196.12 304.68 195.91 304.68 195.65C304.68 195.39 304.47 195.18 304.21 195.18H300.5V192.33H304.21C304.47 192.33 304.68 192.12 304.68 191.86C304.68 191.6 304.47 191.39 304.21 191.39H300.5V189.95L294.6 184.05H292.19V180.29C292.19 180.03 291.98 179.82 291.72 179.82C291.46 179.82 291.25 180.03 291.25 180.29V184.05H288.41V164.28C288.41 160.24 291.68 156.97 295.72 156.97H300.87C304.91 156.97 308.18 160.24 308.18 164.28V169.16V176.58L305.95 178.81C305.19 178.38 304.22 178.48 303.57 179.12C302.69 180 302.81 181.51 303.94 182.21C304.56 182.6 305.37 182.59 305.99 182.21C306.96 181.61 307.18 180.42 306.67 179.54L309.2 177.01V168.84C311.24 168.37 313.46 168.93 315.05 170.51L316.61 172.07C318.9 174.36 319.05 177.98 317.07 180.44H319.21C322.48 180.44 325.14 183.09 325.14 186.37V191.73L325.15 191.69Z" fill="#00B6A2"></path>
  </g>
  <defs>
    <linearGradient id="paint0_linear_5630_313768" x1="498.26" y1="363.04" x2="297.86" y2="162.64" gradientUnits="userSpaceOnUse">
      <stop stop-color="#00B6A2"></stop>
      <stop offset="1" stop-color="#00B6A2" stop-opacity="0"></stop>
    </linearGradient>
    <linearGradient id="paint1_linear_5630_313768" x1="443.97" y1="136.14" x2="364.35" y2="56.52" gradientUnits="userSpaceOnUse">
      <stop stop-color="white"></stop>
      <stop offset="1" stop-color="white" stop-opacity="0"></stop>
    </linearGradient>
    <linearGradient id="paint2_linear_5630_313768" x1="370.92" y1="369.3" x2="86.01" y2="84.4" gradientUnits="userSpaceOnUse">
      <stop stop-color="#00B6A2"></stop>
      <stop offset="1" stop-color="#00B6A2" stop-opacity="0.2"></stop>
    </linearGradient>
    <linearGradient id="paint3_linear_5630_313768" x1="180.63" y1="282.17" x2="141.45" y2="242.99" gradientUnits="userSpaceOnUse">
      <stop stop-color="white"></stop>
      <stop offset="1" stop-color="white" stop-opacity="0"></stop>
    </linearGradient>
    <clipPath id="clip0_5630_313768">
      <rect width="547.49" height="432" fill="white"></rect>
    </clipPath>
  </defs>
</svg>
